<?xml version="1.0" encoding="UTF-8"?>
<!DOCTYPE svg PUBLIC "-//W3C//DTD SVG 1.1//EN" "http://www.w3.org/Graphics/SVG/1.1/DTD/svg11.dtd">
<svg xmlns="http://www.w3.org/2000/svg" version="1.1" width="800px" height="800px" style="shape-rendering:geometricPrecision; text-rendering:geometricPrecision; image-rendering:optimizeQuality; fill-rule:evenodd; clip-rule:evenodd" xmlns:xlink="http://www.w3.org/1999/xlink">
<g><path style="opacity:0.935" fill="#29a7ff" d="M 35.5,342.5 C 42.5,342.5 49.5,342.5 56.5,342.5C 56.3334,360.836 56.5001,379.17 57,397.5C 58.8333,402 62,405.167 66.5,407C 77.8333,407.333 89.1667,407.667 100.5,408C 101.467,412.401 101.8,416.901 101.5,421.5C 87.496,421.667 73.496,421.5 59.5,421C 47.8204,419.648 39.987,413.481 36,402.5C 35.5,382.503 35.3334,362.503 35.5,342.5 Z"/></g>
<g><path style="opacity:0.936" fill="#29a7ff" d="M 135.5,342.5 C 150.833,342.5 166.167,342.5 181.5,342.5C 181.5,347.5 181.5,352.5 181.5,357.5C 168.496,357.333 155.496,357.5 142.5,358C 135.21,361.072 131.21,366.572 130.5,374.5C 147.833,374.5 165.167,374.5 182.5,374.5C 182.5,379.5 182.5,384.5 182.5,389.5C 165.167,389.5 147.833,389.5 130.5,389.5C 131.19,397.017 134.857,402.517 141.5,406C 155.107,407.427 168.774,407.927 182.5,407.5C 182.5,412.167 182.5,416.833 182.5,421.5C 166.497,421.667 150.497,421.5 134.5,421C 119.363,416.928 110.529,407.095 108,391.5C 105.01,375.408 109.177,361.574 120.5,350C 125.324,346.921 130.324,344.421 135.5,342.5 Z"/></g>
<g><path style="opacity:0.935" fill="#29a7ff" d="M 215.5,342.5 C 234.833,342.5 254.167,342.5 273.5,342.5C 273.5,347.5 273.5,352.5 273.5,357.5C 257.83,357.333 242.163,357.5 226.5,358C 217.609,359.917 212.442,365.417 211,374.5C 208.738,385.619 211.238,395.452 218.5,404C 220.717,405.275 223.051,406.275 225.5,407C 234.827,407.5 244.161,407.666 253.5,407.5C 253.5,401.167 253.5,394.833 253.5,388.5C 244.5,388.5 235.5,388.5 226.5,388.5C 226.5,383.833 226.5,379.167 226.5,374.5C 242.5,374.5 258.5,374.5 274.5,374.5C 274.5,390.167 274.5,405.833 274.5,421.5C 254.164,421.667 233.831,421.5 213.5,421C 199.887,415.718 191.72,405.885 189,391.5C 185.352,368.113 194.186,351.78 215.5,342.5 Z"/></g>
<g><path style="opacity:0.931" fill="#29a7ff" d="M 308.5,342.5 C 315.755,342.187 322.921,342.52 330,343.5C 341.167,369.167 352.333,394.833 363.5,420.5C 356.524,421.664 349.524,421.831 342.5,421C 340.371,415.904 338.371,410.737 336.5,405.5C 325.849,404.334 315.182,404.168 304.5,405C 301.972,410.251 299.639,415.584 297.5,421C 290.5,421.667 283.5,421.667 276.5,421C 287.66,395.015 298.327,368.849 308.5,342.5 Z M 319.5,364.5 C 323.003,372.319 326.336,380.319 329.5,388.5C 323.167,389.833 316.833,389.833 310.5,388.5C 313.513,380.479 316.513,372.479 319.5,364.5 Z"/></g>
<g><path style="opacity:0.937" fill="#29a7ff" d="M 364.5,342.5 C 371.5,342.5 378.5,342.5 385.5,342.5C 385.081,361.208 385.581,379.875 387,398.5C 388.627,403.062 391.794,405.895 396.5,407C 407.828,407.5 419.162,407.667 430.5,407.5C 430.5,412.167 430.5,416.833 430.5,421.5C 416.496,421.667 402.496,421.5 388.5,421C 375.706,419.196 367.873,412.03 365,399.5C 364.5,380.503 364.333,361.503 364.5,342.5 Z"/></g>
<g><path style="opacity:0.936" fill="#29a7ff" d="M 465.5,342.5 C 488.51,342.167 511.51,342.5 534.5,343.5C 540.504,353.512 547.004,363.178 554,372.5C 560.5,362.667 567,352.833 573.5,343C 581.833,342.333 590.167,342.333 598.5,343C 587,357.833 575.5,372.667 564,387.5C 563.5,398.828 563.333,410.162 563.5,421.5C 556.833,421.5 550.167,421.5 543.5,421.5C 543.667,410.162 543.5,398.828 543,387.5C 532.667,373.5 522.333,359.5 512,345.5C 511.501,349.486 511.334,353.486 511.5,357.5C 498.496,357.333 485.496,357.5 472.5,358C 464.431,360.565 460.431,366.065 460.5,374.5C 477.5,374.5 494.5,374.5 511.5,374.5C 511.5,379.5 511.5,384.5 511.5,389.5C 494.5,389.5 477.5,389.5 460.5,389.5C 460.868,396.727 464.202,402.227 470.5,406C 484.115,407.406 497.782,407.906 511.5,407.5C 511.5,412.167 511.5,416.833 511.5,421.5C 495.83,421.667 480.163,421.5 464.5,421C 451.541,418.042 443.041,410.209 439,397.5C 433.561,378.754 437.728,362.587 451.5,349C 455.877,345.975 460.544,343.808 465.5,342.5 Z"/></g>
<g><path style="opacity:0.938" fill="#29a7ff" d="M 625.5,342.5 C 640.833,342.5 656.167,342.5 671.5,342.5C 671.5,347.5 671.5,352.5 671.5,357.5C 658.496,357.333 645.496,357.5 632.5,358C 624.431,360.565 620.431,366.065 620.5,374.5C 637.5,374.5 654.5,374.5 671.5,374.5C 671.5,379.5 671.5,384.5 671.5,389.5C 654.5,389.5 637.5,389.5 620.5,389.5C 620.783,397.228 624.45,402.728 631.5,406C 644.773,407.425 658.106,407.925 671.5,407.5C 671.5,412.167 671.5,416.833 671.5,421.5C 655.83,421.667 640.163,421.5 624.5,421C 609.932,417.431 601.099,408.264 598,393.5C 594.228,376.072 598.728,361.239 611.5,349C 615.877,345.975 620.544,343.808 625.5,342.5 Z"/></g>
<g><path style="opacity:0.936" fill="#29a7ff" d="M 696.5,342.5 C 717.5,342.5 738.5,342.5 759.5,342.5C 759.5,347.167 759.5,351.833 759.5,356.5C 743.163,356.333 726.83,356.5 710.5,357C 703.408,358.686 701.241,362.852 704,369.5C 705.214,371.049 706.714,372.215 708.5,373C 721.541,373.122 734.541,373.789 747.5,375C 761.754,380.338 766.92,390.505 763,405.5C 759.745,413.089 754.245,418.256 746.5,421C 725.169,421.5 703.836,421.667 682.5,421.5C 682.5,416.5 682.5,411.5 682.5,406.5C 699.503,406.667 716.503,406.5 733.5,406C 739.842,403.817 741.675,399.65 739,393.5C 737.786,391.951 736.286,390.785 734.5,390C 721.88,388.769 709.214,388.102 696.5,388C 680.259,382.686 674.759,371.852 680,355.5C 683.939,349.048 689.439,344.714 696.5,342.5 Z"/></g>
</svg>
