<?xml version="1.0" encoding="UTF-8"?>
<!DOCTYPE svg PUBLIC "-//W3C//DTD SVG 1.1//EN" "http://www.w3.org/Graphics/SVG/1.1/DTD/svg11.dtd">
<svg xmlns="http://www.w3.org/2000/svg" version="1.1" width="800px" height="800px" style="shape-rendering:geometricPrecision; text-rendering:geometricPrecision; image-rendering:optimizeQuality; fill-rule:evenodd; clip-rule:evenodd" xmlns:xlink="http://www.w3.org/1999/xlink">
<g><path style="opacity:0.976" fill="#29a7ff" d="M 378.5,16.5 C 490.192,12.7478 575.025,58.0812 633,152.5C 653.082,188.242 663.915,226.576 665.5,267.5C 647.83,267.667 630.164,267.5 612.5,267C 602.684,183.655 560.017,123.988 484.5,88C 414.609,60.2328 347.609,65.8995 283.5,105C 283,105.5 282.5,106 282,106.5C 281.333,184.5 281.333,262.5 282,340.5C 285.408,370.822 301.908,389.655 331.5,397C 386.474,398.466 441.474,398.966 496.5,398.5C 496.5,416.5 496.5,434.5 496.5,452.5C 436.139,452.973 375.805,452.473 315.5,451C 265.44,439.94 236.273,409.106 228,358.5C 227.667,292.167 227.333,225.833 227,159.5C 188.058,216.231 177.725,277.897 196,344.5C 216.967,410.298 259.467,455.964 323.5,481.5C 316.142,497.213 307.976,512.546 299,527.5C 298.261,528.574 297.261,529.241 296,529.5C 217.686,494.515 166.353,435.848 142,353.5C 118.089,249.601 143.923,160.434 219.5,86C 264.897,45.6918 317.897,22.5251 378.5,16.5 Z"/></g>
<g><path style="opacity:0.954" fill="#29a7ff" d="M 306.5,120.5 C 369.501,120.333 432.501,120.5 495.5,121C 496.16,129.925 496.493,138.925 496.5,148C 496.493,157.075 496.16,166.075 495.5,175C 432.501,175.5 369.501,175.667 306.5,175.5C 306.5,157.167 306.5,138.833 306.5,120.5 Z"/></g>
<g><path style="opacity:0.954" fill="#29a7ff" d="M 306.5,212.5 C 369.501,212.333 432.501,212.5 495.5,213C 496.16,221.925 496.493,230.925 496.5,240C 496.493,249.075 496.16,258.075 495.5,267C 432.501,267.5 369.501,267.667 306.5,267.5C 306.5,249.167 306.5,230.833 306.5,212.5 Z"/></g>
<g><path style="opacity:0.955" fill="#29a7ff" d="M 306.5,304.5 C 369.501,304.333 432.501,304.5 495.5,305C 496.492,323.09 496.826,341.257 496.5,359.5C 433.167,359.5 369.833,359.5 306.5,359.5C 306.5,341.167 306.5,322.833 306.5,304.5 Z"/></g>
<g><path style="opacity:0.967" fill="#29a7ff" d="M 518.5,304.5 C 567.5,304.5 616.5,304.5 665.5,304.5C 657.639,389.416 618.972,456.25 549.5,505C 496.155,539.795 437.655,554.962 374,550.5C 367.023,569.453 358.19,587.453 347.5,604.5C 363.988,629.803 378.155,656.47 390,684.5C 390.833,661.826 390.666,639.159 389.5,616.5C 375.149,609.614 371.983,599.281 380,585.5C 390.612,577.01 400.612,577.677 410,587.5C 416.205,601.095 412.372,610.762 398.5,616.5C 397.334,639.493 397.167,662.493 398,685.5C 409.787,657.087 424.287,630.253 441.5,605C 434.96,592.753 428.294,580.587 421.5,568.5C 437.244,566.819 452.577,563.485 467.5,558.5C 468.511,562.856 470.344,566.856 473,570.5C 481.815,581.647 490.982,592.48 500.5,603C 483.58,615.329 469.747,630.496 459,648.5C 435.988,690.53 419.488,735.03 409.5,782C 399.256,782.819 389.09,782.652 379,781.5C 371.881,729.789 353.214,682.789 323,640.5C 313.734,628.064 303.9,616.064 293.5,604.5C 300.5,594.504 307,584.17 313,573.5C 327.755,546.325 342.255,518.992 356.5,491.5C 441.244,505.868 511.41,480.535 567,415.5C 579.966,398.501 590.466,380.001 598.5,360C 571.835,359.5 545.169,359.333 518.5,359.5C 518.5,341.167 518.5,322.833 518.5,304.5 Z"/></g>
</svg>
