<?xml version="1.0" standalone="no"?>
<!DOCTYPE svg PUBLIC "-//W3C//DTD SVG 20010904//EN"
 "http://www.w3.org/TR/2001/REC-SVG-20010904/DTD/svg10.dtd">
<svg version="1.0" xmlns="http://www.w3.org/2000/svg"
 width="800.000000pt" height="800.000000pt" viewBox="0 0 800.000000 800.000000"
 preserveAspectRatio="xMidYMid meet">

<g transform="translate(0.000000,800.000000) scale(0.100000,-0.100000)"
fill="#000000" stroke="none">
<path d="M360 4297 c0 -328 5 -356 80 -429 72 -70 113 -79 363 -85 l207 -5 0
65 0 66 -174 3 c-191 3 -202 6 -250 72 -20 26 -21 43 -24 307 l-3 279 -99 0
-100 0 0 -273z"/>
<path d="M1390 4563 c-191 -33 -301 -176 -301 -394 0 -140 52 -262 138 -322
79 -55 109 -60 361 -65 l232 -4 0 71 0 71 -193 0 c-167 0 -197 2 -226 18 -44
24 -90 88 -93 132 l-3 35 258 3 257 2 0 70 0 70 -261 0 -261 0 6 23 c3 12 6
28 6 35 0 25 82 102 119 112 20 5 116 10 214 10 l178 0 -3 68 -3 67 -200 1
c-110 1 -211 0 -225 -3z"/>
<path d="M2167 4559 c-59 -14 -108 -43 -159 -96 -150 -154 -151 -424 -3 -582
88 -94 95 -96 438 -99 l297 -3 0 230 0 231 -230 0 -230 0 0 -60 0 -59 133 -3
132 -3 3 -97 3 -98 -159 0 c-149 0 -161 1 -193 23 -20 13 -46 47 -64 82 -27
52 -30 68 -30 149 0 82 3 96 30 144 53 97 52 97 343 100 l252 3 0 74 0 75
-262 -1 c-145 -1 -280 -5 -301 -10z"/>
<path d="M2956 4208 c-82 -200 -156 -378 -163 -396 l-14 -33 98 3 97 3 35 88
35 87 164 -2 165 -3 31 -85 32 -85 97 -3 c53 -1 97 1 96 5 0 4 -75 181 -167
393 l-167 385 -95 3 -96 3 -148 -363z m251 -106 c-55 -1 -101 -1 -103 1 -3 2
34 105 92 257 4 9 28 -43 59 -120 l52 -135 -100 -3z"/>
<path d="M3662 4273 c3 -291 4 -299 27 -346 14 -28 41 -61 64 -78 70 -51 122
-61 345 -66 l202 -6 0 67 0 66 -155 0 c-175 0 -216 10 -256 63 -24 32 -24 34
-27 315 l-3 282 -100 0 -100 0 3 -297z"/>
<path d="M4660 4556 c-72 -16 -126 -45 -172 -93 -114 -119 -140 -334 -59 -498
38 -76 92 -126 170 -157 52 -21 72 -22 286 -23 l230 0 0 65 0 65 -200 5 c-124
3 -208 9 -220 17 -47 27 -95 102 -95 148 l0 25 260 0 261 0 -3 68 -3 67 -259
3 -259 2 6 36 c8 49 51 102 101 125 35 16 67 19 223 19 l182 0 3 65 3 66 168
-224 167 -224 0 -167 0 -167 91 3 91 3 -1 161 -2 160 148 195 c82 107 161 211
177 232 l28 37 -116 0 -116 0 -102 -155 c-57 -85 -105 -154 -108 -154 -3 0
-50 69 -105 154 l-100 155 -310 -1 c-205 0 -329 -5 -365 -13z"/>
<path d="M6260 4556 c-72 -16 -127 -45 -171 -93 -115 -120 -141 -334 -60 -498
38 -76 92 -126 170 -157 52 -21 72 -22 286 -23 l230 0 0 65 0 65 -200 5 c-124
3 -208 9 -220 17 -47 27 -95 102 -95 148 l0 25 260 0 261 0 -3 68 -3 67 -259
3 -259 2 6 36 c8 49 51 102 101 125 35 16 67 19 224 19 l182 0 0 70 0 70 -197
-1 c-116 0 -221 -6 -253 -13z"/>
<path d="M6977 4559 c-56 -13 -89 -33 -130 -78 -76 -84 -76 -211 0 -287 68
-68 104 -77 320 -84 186 -5 192 -6 218 -30 22 -20 25 -32 23 -69 -2 -35 -9
-48 -31 -65 -27 -20 -42 -21 -283 -24 l-254 -3 0 -70 0 -70 313 3 c300 3 314
4 353 25 167 89 180 318 24 407 l-55 31 -196 5 c-179 5 -199 7 -219 25 -33 29
-43 63 -29 96 23 57 35 59 309 59 l250 0 0 70 0 70 -287 -1 c-159 -1 -305 -5
-326 -10z"/>
</g>
</svg>
