<?xml version="1.0" standalone="no"?>
<!DOCTYPE svg PUBLIC "-//W3C//DTD SVG 20010904//EN"
 "http://www.w3.org/TR/2001/REC-SVG-20010904/DTD/svg10.dtd">
<svg version="1.0" xmlns="http://www.w3.org/2000/svg"
 width="800.000000pt" height="800.000000pt" viewBox="0 0 800.000000 800.000000"
 preserveAspectRatio="xMidYMid meet">

<g transform="translate(0.000000,800.000000) scale(0.100000,-0.100000)"
fill="#000000" stroke="none">
<path d="M3875 7823 c-389 -31 -657 -96 -972 -236 -409 -182 -803 -507 -1070
-883 -240 -338 -399 -733 -464 -1155 -32 -206 -32 -571 -1 -774 91 -583 347
-1091 757 -1500 136 -135 241 -221 412 -335 125 -83 398 -230 427 -230 14 0
113 164 220 362 44 81 50 108 25 108 -26 0 -265 125 -364 190 -338 223 -581
498 -756 854 -158 321 -229 654 -216 1011 14 397 129 763 339 1080 l73 110 5
-1040 c5 -1033 5 -1041 27 -1117 99 -350 327 -602 653 -725 168 -63 171 -63
1126 -63 l864 0 -2 263 -3 262 -825 5 -825 5 -65 23 c-181 65 -314 196 -388
378 l-27 69 -3 1227 -2 1226 57 37 c89 56 327 170 428 204 367 124 744 149
1115 75 840 -168 1506 -830 1675 -1667 13 -67 27 -152 31 -189 l7 -68 263 0
264 0 0 29 c0 17 -7 83 -15 148 -100 764 -528 1448 -1175 1878 -131 87 -407
227 -554 280 -311 114 -754 181 -1041 158z"/>
<path d="M3080 6515 l0 -265 940 0 940 0 0 265 0 265 -940 0 -940 0 0 -265z"/>
<path d="M3080 5595 l0 -265 940 0 940 0 0 265 0 265 -940 0 -940 0 0 -265z"/>
<path d="M3080 4675 l0 -265 940 0 940 0 0 265 0 265 -940 0 -940 0 0 -265z"/>
<path d="M5197 4933 c-4 -3 -7 -123 -7 -265 l0 -258 406 0 405 0 -7 -22 c-3
-13 -28 -70 -55 -127 -310 -661 -937 -1122 -1655 -1216 -161 -21 -436 -19
-594 5 -69 10 -126 17 -126 17 -1 -1 -41 -81 -89 -177 -170 -340 -362 -690
-471 -858 l-54 -83 61 -67 c88 -96 247 -311 341 -459 102 -163 243 -451 303
-618 68 -190 145 -508 145 -602 l0 -23 148 0 147 0 48 192 c182 721 466 1282
774 1528 l81 65 -21 27 c-12 14 -64 75 -116 134 -95 109 -191 245 -191 271 0
11 -6 11 -31 -3 -47 -24 -208 -62 -296 -70 -126 -11 -124 5 -14 -198 l97 -179
-113 -187 c-126 -210 -248 -439 -299 -562 l-34 -83 0 361 0 362 25 6 c42 11
104 74 116 119 36 135 -84 261 -216 226 -55 -15 -92 -44 -115 -89 -51 -100 2
-230 103 -255 l27 -7 0 -366 c0 -201 -2 -363 -3 -361 -2 2 -34 72 -71 154
-108 239 -276 550 -352 652 l-24 32 56 98 c73 127 165 312 194 394 l23 64 266
0 c281 0 359 8 591 60 376 84 758 268 1068 516 118 95 307 283 405 404 309
383 509 847 572 1328 8 65 15 120 15 123 0 7 -1456 5 -1463 -3z"/>
</g>
</svg>
